<svg id="Layer_1" data-name="Layer 1" xmlns="http://www.w3.org/2000/svg" viewBox="0 0 133.31 124.95"><defs><style>.cls-1{fill:#5c8078;}.cls-2{fill:#517970;}</style></defs><path class="cls-1" d="M88.1,25.2A11.59,11.59,0,1,0,99.69,36.79,11.59,11.59,0,0,0,88.1,25.2ZM88.1,43a6.25,6.25,0,1,1,6.25-6.25A6.24,6.24,0,0,1,88.1,43Z" transform="translate(-58.35 -12.53)"/><path class="cls-1" d="M124.75,12.53a11.59,11.59,0,1,0,11.59,11.59A11.59,11.59,0,0,0,124.75,12.53Zm0,17.83A6.25,6.25,0,1,1,131,24.12,6.24,6.24,0,0,1,124.75,30.36Z" transform="translate(-58.35 -12.53)"/><path class="cls-1" d="M161.75,25.2a11.59,11.59,0,1,0,11.59,11.59A11.59,11.59,0,0,0,161.75,25.2Zm0,17.84A6.25,6.25,0,1,1,168,36.79,6.25,6.25,0,0,1,161.75,43Z" transform="translate(-58.35 -12.53)"/><path class="cls-2" d="M124.75,47h12.08a2.19,2.19,0,0,1,1.73.58,1.81,1.81,0,0,1,.4,1.2c0,1.32,0,9.72,0,21.26-.13,26.48.47,46-.08,52.82,0,.2-.07.81.26,1,.53.36,1.88-.66,4.56-2.71l3.22-2.48,3.45-2.83c.12-30,.27-51.89.24-57.34a5.39,5.39,0,0,1,1.13-3.69c1.47-1.63,3.56-1.07,10.09-1.1,6,0,7.2-.49,9,.71.56.37.95.76,3.46,4.94,3.42,5.73,4.67,8.33,6.42,8.26a2.18,2.18,0,0,0,1.3-.53c1.24-1.15-.13-3.14.81-4.79s3.82-2.42,5.71-1.38a4.92,4.92,0,0,1,2.08,3.11,8,8,0,0,1-.12,4.91,10.27,10.27,0,0,1-3.29,4.78,11.13,11.13,0,0,1-11.79.93c-2.87-1.55-4.65-4.5-6.14-7-1.72-2.85-2.5-5.35-4.5-5.65-.51-.08-.82,0-3.23,0-.94,0-1.71-.05-2.22-.07l0,58.33q-2.61,2-5.27,4-5,3.81-10,7.49c-1.94,1.51-3.67,2.72-5.08,3.66-2.26,1.5-3.39,2.1-4.78,1.94a4.42,4.42,0,0,1-2.19-.93c-2.46-1.9-2.08-6.15-1.85-12.51.13-3.52.07-7,.17-10.55.17-5.34.08-7.72.06-14.77,0-6.21,0-18.15.2-43.36h-5.68Z" transform="translate(-58.35 -12.53)"/><path class="cls-2" d="M180.05,89.87H169a12.42,12.42,0,0,0,3.23,8.19,11.25,11.25,0,0,0,8.26,3.8,11.09,11.09,0,0,0,7.61-3.41,12.58,12.58,0,0,0,3.6-8.53Z" transform="translate(-58.35 -12.53)"/><polygon class="cls-2" points="113.33 77.35 120.38 61.4 122.28 62.27 115.41 77.53 113.33 77.35"/><polygon class="cls-2" points="123.38 61.4 130.75 77.74 128.77 78.63 121.81 62.89 123.38 61.4"/><path class="cls-2" d="M125.25,47H113.17a2.19,2.19,0,0,0-1.73.58,1.81,1.81,0,0,0-.4,1.2c0,1.32,0,9.72,0,21.26.13,26.48-.47,46,.08,52.82,0,.2.07.81-.26,1-.53.36-1.88-.66-4.56-2.71l-3.22-2.48-3.45-2.83c-.12-30-.27-51.89-.24-57.34a5.39,5.39,0,0,0-1.13-3.69c-1.47-1.63-3.56-1.07-10.09-1.1-6,0-7.2-.49-9,.71-.56.37-1,.76-3.46,4.94-3.42,5.73-4.67,8.33-6.42,8.26a2.18,2.18,0,0,1-1.3-.53c-1.24-1.15.13-3.14-.81-4.79S63.39,59.94,61.5,61a4.92,4.92,0,0,0-2.08,3.11A8,8,0,0,0,59.54,69a10.27,10.27,0,0,0,3.29,4.78,11.13,11.13,0,0,0,11.79.93c2.87-1.55,4.65-4.5,6.14-7,1.72-2.85,2.5-5.35,4.5-5.65.51-.08.82,0,3.23,0,.94,0,1.71-.05,2.22-.07l0,58.33q2.61,2,5.27,4,5,3.81,9.95,7.49c1.94,1.51,3.67,2.72,5.08,3.66,2.26,1.5,3.39,2.1,4.78,1.94a4.42,4.42,0,0,0,2.19-.93c2.46-1.9,2.08-6.15,1.85-12.51-.13-3.52-.07-7-.17-10.55-.17-5.34-.08-7.72-.06-14.77,0-6.21,0-18.15-.2-43.36h5.68Z" transform="translate(-58.35 -12.53)"/><path class="cls-2" d="M70,89.87h11.1a12.42,12.42,0,0,1-3.23,8.19,11.25,11.25,0,0,1-8.26,3.8A11.09,11.09,0,0,1,62,98.45a12.58,12.58,0,0,1-3.6-8.53Z" transform="translate(-58.35 -12.53)"/><polygon class="cls-2" points="19.98 77.35 12.93 61.4 11.03 62.27 17.9 77.53 19.98 77.35"/><polygon class="cls-2" points="9.93 61.4 2.56 77.74 4.54 78.63 11.5 62.89 9.93 61.4"/></svg>